<svg xmlns="http://www.w3.org/2000/svg" viewBox="0 0 32 32" fill="none">
  <!-- Dark background -->
  <rect width="32" height="32" rx="4" fill="#08080D"/>
  <!-- Outer diamond -->
  <polygon points="16,3 29,16 16,29 3,16" fill="none" stroke="#C9A84C" stroke-width="1.2" opacity="0.5"/>
  <!-- Inner diamond -->
  <polygon points="16,7 25,16 16,25 7,16" fill="none" stroke="#C9A84C" stroke-width="0.8" opacity="0.3"/>
  <!-- Flame / candle body -->
  <rect x="14.5" y="17" width="3" height="7" rx="0.5" fill="#C9A84C" opacity="0.9"/>
  <!-- Flame shape -->
  <path d="M16 6 C16 6 19.5 10 19.5 13.5 C19.5 15.5 17.9 17 16 17 C14.1 17 12.5 15.5 12.5 13.5 C12.5 10 16 6 16 6Z" fill="#C9A84C"/>
  <!-- Flame inner highlight -->
  <path d="M16 9 C16 9 18 11.5 18 13.2 C18 14.4 17.1 15.2 16 15.2 C14.9 15.2 14 14.4 14 13.2 C14 11.5 16 9 16 9Z" fill="#F0DFA8" opacity="0.7"/>
  <!-- Small corner diamonds -->
  <rect x="15.3" y="1.3" width="1.4" height="1.4" transform="rotate(45 16 2)" fill="#C9A84C" opacity="0.6"/>
  <rect x="15.3" y="28.3" width="1.4" height="1.4" transform="rotate(45 16 29)" fill="#C9A84C" opacity="0.6"/>
</svg>
