<svg xmlns="http://www.w3.org/2000/svg" viewBox="0 0 32 32">
  <rect width="32" height="32" rx="4" fill="#08080D"/>
  <polygon points="16,2 30,16 16,30 2,16" fill="none" stroke="#C9A84C" stroke-width="1.2" opacity="0.55"/>
  <polygon points="16,6 26,16 16,26 6,16" fill="none" stroke="#C9A84C" stroke-width="0.7" opacity="0.3"/>
  <rect x="14.6" y="18" width="2.8" height="6" rx="0.6" fill="#C9A84C"/>
  <path d="M16 7 C16 7 20 11.5 20 14.2 C20 16.3 18.2 18 16 18 C13.8 18 12 16.3 12 14.2 C12 11.5 16 7 16 7Z" fill="#C9A84C"/>
  <path d="M16 10.5 C16 10.5 18 13 18 14.5 C18 15.6 17.1 16.4 16 16.4 C14.9 16.4 14 15.6 14 14.5 C14 13 16 10.5 16 10.5Z" fill="#F0DFA8" opacity="0.75"/>
</svg>
